<svg xmlns="http://www.w3.org/2000/svg" data-name="Layer 1" viewBox="0 0 32 32"><path d="M31,10a1,1,0,0,0-.22-.62L27.68,5.5A4,4,0,0,0,24.56,4H7.44A4,4,0,0,0,4.32,5.5L1.22,9.38A1,1,0,0,0,1,10a4,4,0,0,0,2,3.44V27a1,1,0,0,0,1,1H28a1,1,0,0,0,1-1V13.44A4,4,0,0,0,31,10ZM5.88,6.75A2,2,0,0,1,7.44,6H24.56a2,2,0,0,1,1.56.75L29,10.32A2,2,0,0,1,27,12a2,2,0,0,1-1.83-1.2,1,1,0,0,0-1.84,0,2,2,0,0,1-3.66,0,1,1,0,0,0-1.84,0,2,2,0,0,1-3.66,0,1,1,0,0,0-1.84,0,2,2,0,0,1-3.66,0,1,1,0,0,0-1.84,0A2,2,0,0,1,5,12a2,2,0,0,1-2-1.68ZM9,26V18h4v8Zm18,0H15V17a1,1,0,0,0-1-1H8a1,1,0,0,0-1,1v9H5V14a4,4,0,0,0,2.75-1.09,4,4,0,0,0,5.5,0,4,4,0,0,0,5.5,0,4,4,0,0,0,5.5,0A4,4,0,0,0,27,14Z"/><path d="M18,16a1,1,0,0,0-1,1v6a1,1,0,0,0,1,1h6a1,1,0,0,0,1-1V17a1,1,0,0,0-1-1Zm5,6H19V18h4Z"/></svg>